<svg width="13" height="16" viewBox="0 0 13 16" fill="none" xmlns="http://www.w3.org/2000/svg">
<path fill-rule="evenodd" clip-rule="evenodd" d="M6.0719 1C4.74582 1 3.47405 1.52678 2.53637 2.46447C1.59868 3.40215 1.0719 4.67392 1.0719 6C1.0719 8.07476 2.35504 10.3357 3.72025 12.1353C4.39334 13.0226 5.06758 13.7736 5.57385 14.3028C5.7683 14.5061 5.93755 14.6763 6.0719 14.8084C6.20625 14.6763 6.3755 14.5061 6.56995 14.3028C7.07622 13.7736 7.75046 13.0226 8.42355 12.1353C9.78876 10.3357 11.0719 8.07476 11.0719 6C11.0719 4.67392 10.5451 3.40215 9.60743 2.46447C8.66975 1.52678 7.39798 1 6.0719 1ZM6.0719 15.5C5.73556 15.87 5.73546 15.8699 5.73534 15.8698L5.73391 15.8685L5.73027 15.8651L5.71714 15.8531L5.66838 15.8077C5.62622 15.7682 5.56516 15.7105 5.4879 15.6357C5.33342 15.4862 5.11398 15.2688 4.8512 14.994C4.32622 14.4452 3.62546 13.6649 2.92355 12.7397C1.53876 10.9143 0.0718994 8.42524 0.0718994 6C0.0718994 4.4087 0.704041 2.88258 1.82926 1.75736C2.95448 0.632141 4.4806 0 6.0719 0C7.6632 0 9.18932 0.632141 10.3145 1.75736C11.4398 2.88258 12.0719 4.4087 12.0719 6C12.0719 8.42524 10.605 10.9143 9.22025 12.7397C8.51834 13.6649 7.81758 14.4452 7.2926 14.994C7.02982 15.2688 6.81038 15.4862 6.6559 15.6357C6.57864 15.7105 6.51758 15.7682 6.47542 15.8077L6.42666 15.8531L6.41353 15.8651L6.40989 15.8685L6.40881 15.8694C6.40869 15.8696 6.40824 15.87 6.0719 15.5ZM6.0719 15.5L6.40881 15.8694C6.2181 16.0428 5.92605 16.0431 5.73534 15.8698L6.0719 15.5Z" fill="#606F7B"/>
<path fill-rule="evenodd" clip-rule="evenodd" d="M6.0719 4C4.96733 4 4.0719 4.89543 4.0719 6C4.0719 7.10457 4.96733 8 6.0719 8C7.17647 8 8.0719 7.10457 8.0719 6C8.0719 4.89543 7.17647 4 6.0719 4ZM3.0719 6C3.0719 4.34315 4.41505 3 6.0719 3C7.72875 3 9.0719 4.34315 9.0719 6C9.0719 7.65685 7.72875 9 6.0719 9C4.41505 9 3.0719 7.65685 3.0719 6Z" fill="#606F7B"/>
</svg>
